<?xml version="1.0" encoding="UTF-8"?>
<svg id="Calque_1" xmlns="http://www.w3.org/2000/svg" xmlns:xlink="http://www.w3.org/1999/xlink" version="1.1" viewBox="0 0 1024 1024">
  <!-- Generator: Adobe Illustrator 29.8.1, SVG Export Plug-In . SVG Version: 2.1.1 Build 2)  -->
  <defs>
    <style>
      .st0, .st1, .st2, .st3, .st4, .st5, .st6, .st7 {
        fill: none;
      }

      .st1 {
        opacity: .35;
      }

      .st1, .st2 {
        stroke: #3db4ff;
      }

      .st1, .st2, .st8, .st3, .st4, .st9, .st6, .st10, .st11, .st12, .st13 {
        isolation: isolate;
      }

      .st1, .st3 {
        stroke-width: 2px;
      }

      .st2 {
        stroke-width: 4px;
      }

      .st2, .st10 {
        opacity: .9;
      }

      .st8 {
        font-size: 48px;
      }

      .st8, .st10 {
        fill: #2c8;
      }

      .st8, .st13 {
        font-family: MyriadPro-Regular, 'Myriad Pro';
      }

      .st14 {
        filter: url(#soft);
      }

      .st3 {
        opacity: .55;
      }

      .st3, .st5 {
        stroke: #fff;
      }

      .st4 {
        opacity: .95;
        stroke: #2c8;
        stroke-width: 5px;
      }

      .st5 {
        stroke-width: 10px;
      }

      .st6 {
        opacity: .6;
        stroke-width: 3px;
      }

      .st6, .st7 {
        stroke: #e7ecf7;
      }

      .st11 {
        fill: #3db4ff;
      }

      .st11, .st12 {
        font-family: Arial-BoldMT, Arial;
        font-size: 92px;
        font-weight: 700;
      }

      .st7 {
        stroke-linecap: round;
        stroke-width: 6px;
      }

      .st12, .st13, .st15 {
        fill: #e7ecf7;
      }

      .st16 {
        fill: #0b1020;
      }

      .st13 {
        font-size: 28px;
        opacity: .7;
      }

      .st17 {
        clip-path: url(#clippath);
      }
    </style>
    <filter id="soft" x="-20%" y="-20%" width="140%" height="140%">
      <feDropShadow dx="0" dy="6" flood-color="#ffffff" flood-opacity="0.15" stdDeviation="8"/>
    </filter>
    <clipPath id="clippath">
      <polygon class="st0" points="884.39 727 512 942 139.61 727 139.61 297 512 82 884.39 297 884.39 727"/>
    </clipPath>
  </defs>
  <g class="st14">
    <polygon class="st16" points="893.05 732 512 952 130.95 732 130.95 292 512 72 893.05 292 893.05 732"/>
    <polygon class="st5" points="893.05 732 512 952 130.95 732 130.95 292 512 72 893.05 292 893.05 732"/>
  </g>
  <g class="st17">
    <g>
      <rect class="st2" x="272" y="292" width="280" height="360"/>
      <line class="st1" x1="328" y1="292" x2="328" y2="652"/>
      <line class="st1" x1="384" y1="292" x2="384" y2="652"/>
      <line class="st1" x1="440" y1="292" x2="440" y2="652"/>
      <line class="st1" x1="496" y1="292" x2="496" y2="652"/>
      <line class="st1" x1="272" y1="352" x2="552" y2="352"/>
      <line class="st1" x1="272" y1="412" x2="552" y2="412"/>
      <line class="st1" x1="272" y1="472" x2="552" y2="472"/>
      <line class="st1" x1="272" y1="532" x2="552" y2="532"/>
      <line class="st1" x1="272" y1="592" x2="552" y2="592"/>
      <line class="st7" x1="572" y1="472" x2="732" y2="522"/>
      <polygon class="st15" points="732 522 712.02 521.18 715.1 511.3 732 522"/>
      <rect class="st4" x="652" y="392" width="120" height="240"/>
      <text class="st8" transform="translate(703.8 378)"><tspan x="0" y="0">Y</tspan></text>
      <circle class="st10" cx="472" cy="472" r="7"/>
      <circle class="st10" cx="502" cy="452" r="7"/>
      <circle class="st10" cx="542" cy="482" r="7"/>
      <circle class="st10" cx="492" cy="522" r="7"/>
      <circle class="st10" cx="532" cy="532" r="7"/>
      <circle class="st10" cx="572" cy="512" r="7"/>
      <circle class="st10" cx="602" cy="542" r="7"/>
      <line class="st6" x1="432" y1="592" x2="632" y2="592"/>
      <line class="st6" x1="432" y1="592" x2="432" y2="452"/>
      <text class="st13" transform="translate(612.86 612)"><tspan x="0" y="0">t₁</tspan></text>
      <text class="st13" transform="translate(392.86 452)"><tspan x="0" y="0">t₂</tspan></text>
    </g>
  </g>
  <g class="st9">
    <text class="st12" transform="translate(353.56 800)"><tspan x="0" y="0">big</tspan></text>
    <text class="st11" transform="translate(491.52 800)"><tspan x="0" y="0">PLS</tspan></text>
  </g>
  <polygon class="st3" points="884.39 727 512 942 139.61 727 139.61 297 512 82 884.39 297 884.39 727"/>
</svg>